<svg xmlns="http://www.w3.org/2000/svg" viewBox="0 0 416.72 401.09"><title>canterbury-logo</title><g id="Layer_2" data-name="Layer 2"><g id="Layer_1-2" data-name="Layer 1"><path d="M358.84,401.09Q329.32,379.69,305,330.48l-63.67,70.61q-55.56-26.61-111.7-26.62-49.2,0-108.23,26.62l-8.68-12.15a331,331,0,0,0,58.46-49.77Q99,309.65,99,287.07a31.38,31.38,0,0,0-8.68-21.7q-8.68-9.55-20.84-9.55-11,0-20.26,9.26l-9.26-4.63Q52.09,228,81,226.88q20.84-.57,37.62,16.21v-2.31a2.36,2.36,0,0,1,.58-1.74V227.46q-1.74-26-15.63-43.7T64.82,166.11q-13.32,0-24.89,11l-8.68-2.31q12.15-33.56,43.41-37,21.41,0,41.67,15,0-53.82,34.15-91.45A78.54,78.54,0,0,1,156.27,55l8.1-8.1,16.21-15q-42.25,21.42-67.72,21.41-4.64,0-10.42-.58T88.55,50.93Q78.7,49.78,72.64,49.2c-4.05-.38-6.86-.58-8.39-.58Q26.61,48.62,11,89.13L0,85.08Q6.36,50.94,27.78,28.36,51.51,2.9,84.5,2.9,96.65,2.9,125,9.26a18.86,18.86,0,0,0,5.79,1.16A122.45,122.45,0,0,0,165,15.63q24.31,0,44.57-15.63l5.21,4.05Q181.73,66,175.95,122.7q-1.17,13.32-2,27.49t-.87,29.23V196.2a29.1,29.1,0,0,0,.58,5.79q0,57.88-15,79.87-12.15,18.53-34.73,36.46l-58.46,48L121,339.74a103.92,103.92,0,0,0,23.15-11q31.82-17.93,44-40.51,11-20.25,11-59V212.41a47.66,47.66,0,0,1-.58-8.68v-8.1q0-132.53,49.2-194.47l9.84,7.52Q218.19,69.45,212.41,143l99-79.29L371,137.17,268,207.78q49.77,30.68,99,118.65,1.74,3.47,5.79,10.13t14.47,13.6q8.1,0,16.78-9.84l4.63-5.21,8.1,9.26Zm-146.43-158q-1.74,31.25-13,51.51t-36.75,38.2q58.45,0,103.6,22.57l32.41-37Q262.18,257,212.41,243.09ZM318.33,158l-41.09-50.35-64.82,51.51v71.19Z"/></g></g></svg>